<svg xmlns="http://www.w3.org/2000/svg" xmlns:xlink="http://www.w3.org/1999/xlink" width="200" zoomAndPan="magnify" viewBox="0 0 150 52.499999" height="70" preserveAspectRatio="xMidYMid meet" version="1.0"><defs><g/><clipPath id="07cf4d8af2"><path d="M 58 5 L 149.292969 5 L 149.292969 45 L 58 45 Z M 58 5 " clip-rule="nonzero"/></clipPath></defs><g clip-path="url(#07cf4d8af2)"><path stroke-linecap="butt" transform="matrix(0.742924, 0, 0, 0.742924, 60.687981, 9.286556)" fill="none" stroke-linejoin="miter" d="M 6.340424 5.408533 C 6.340424 5.077283 6.414035 4.819644 6.561257 4.646132 C 6.718996 4.462104 6.929313 4.367461 7.202726 4.367461 L 31.362946 4.367461 C 31.909771 4.367461 32.183184 4.682938 32.183184 5.319148 L 32.14112 10.577085 C 32.14112 11.397323 31.757291 11.802184 31.000148 11.802184 L 17.676536 11.802184 C 16.982488 11.802184 16.635465 12.086113 16.635465 12.659228 L 16.635465 16.918157 C 16.635465 17.52282 16.908877 17.822522 17.450445 17.822522 L 25.742211 17.822522 C 26.346874 17.822522 26.651834 18.127482 26.651834 18.732145 L 26.651834 24.263495 C 26.651834 24.78403 26.378422 25.041669 25.831596 25.041669 L 17.355802 25.041669 C 17.145484 25.041669 16.971972 25.099507 16.835266 25.215181 C 16.69856 25.336114 16.635465 25.504368 16.635465 25.714685 L 16.635465 36.682741 C 16.635465 37.17173 16.514532 37.513495 16.267409 37.713297 C 16.025544 37.902583 15.646972 38.002484 15.14221 38.002484 L 7.570781 38.002484 C 7.113341 38.002484 6.792607 37.913099 6.608579 37.734329 C 6.429809 37.550301 6.340424 37.261115 6.340424 36.872027 Z M 35.805902 5.408533 C 35.805902 5.077283 35.879513 4.819644 36.026736 4.646132 C 36.179216 4.462104 36.394791 4.367461 36.668204 4.367461 L 45.280705 4.367461 C 45.822272 4.367461 46.095685 4.682938 46.095685 5.319148 L 46.095685 29.931551 C 46.095685 30.173416 46.13249 30.34167 46.206101 30.431055 C 46.279713 30.520439 46.426935 30.562503 46.637252 30.562503 L 60.286856 30.562503 C 60.980904 30.562503 61.32267 30.851689 61.32267 31.424805 L 61.32267 37.003476 C 61.32267 37.308436 61.228027 37.550301 61.028226 37.734329 C 60.833682 37.913099 60.560269 38.002484 60.197471 38.002484 L 37.031002 38.002484 C 36.573561 38.002484 36.252827 37.913099 36.068799 37.734329 C 35.895287 37.550301 35.805902 37.261115 35.805902 36.872027 Z M 74.425449 4.367461 C 74.972274 4.367461 75.245687 4.682938 75.245687 5.319148 L 75.245687 36.682741 C 75.245687 37.17173 75.119496 37.513495 74.877631 37.713297 C 74.635766 37.902583 74.257195 38.002484 73.747175 38.002484 L 66.181004 38.002484 C 65.723563 38.002484 65.402829 37.913099 65.218801 37.734329 C 65.040031 37.550301 64.950646 37.261115 64.950646 36.872027 L 64.950646 5.408533 C 64.950646 5.077283 65.024258 4.819644 65.17148 4.646132 C 65.329218 4.462104 65.539535 4.367461 65.812948 4.367461 Z M 110.189935 35.688991 C 110.61057 36.319944 110.820888 36.835222 110.820888 37.224309 C 110.820888 37.739587 110.400253 38.002484 109.558983 38.002484 L 101.393407 38.002484 C 100.452236 38.002484 99.821284 37.697523 99.490034 37.092861 L 94.50551 28.569745 C 94.232097 28.12282 94.021779 27.896729 93.864041 27.896729 C 93.690529 27.896729 93.480212 28.107046 93.233089 28.527681 L 88.343208 37.092861 C 88.011958 37.697523 87.359973 38.002484 86.397771 38.002484 L 79.956798 38.002484 C 79.105012 38.002484 78.684378 37.755361 78.684378 37.27163 C 78.684378 36.935122 78.910469 36.409329 79.367909 35.688991 L 88.301144 21.865875 C 88.506204 21.560915 88.611362 21.287502 88.611362 21.045637 C 88.611362 20.830062 88.506204 20.556649 88.301144 20.225399 L 79.13656 5.9501 C 78.989338 5.771331 78.915727 5.51895 78.915727 5.1877 C 78.915727 4.640874 79.231203 4.367461 79.867413 4.367461 L 88.432592 4.367461 C 88.911065 4.367461 89.289636 4.446331 89.563049 4.598811 C 89.831204 4.746033 90.062553 4.987898 90.246581 5.319148 L 94.374061 12.611906 C 94.521283 12.853772 94.689537 12.979962 94.873565 12.979962 C 95.052335 12.979962 95.215331 12.853772 95.373069 12.611906 L 99.490034 5.319148 C 99.674061 4.987898 99.894895 4.746033 100.152534 4.598811 C 100.410173 4.446331 100.778228 4.367461 101.2567 4.367461 L 108.286562 4.367461 C 108.891225 4.367461 109.190927 4.593553 109.190927 5.040477 C 109.190927 5.256053 109.085768 5.529466 108.870193 5.860716 L 100.305014 19.010816 C 100.131502 19.284228 100.042117 19.520836 100.042117 19.731153 C 100.042117 19.94147 100.157792 20.246431 100.394399 20.635518 Z M 110.189935 35.688991 " stroke="#f52e00" stroke-width="1.699999" stroke-opacity="1" stroke-miterlimit="4"/></g><g fill="#f52e00" fill-opacity="1"><g transform="translate(5.163159, 37.517686)"><g><path d="M 2.625 0 C 2.351562 0 2.140625 -0.0820312 1.984375 -0.25 C 1.828125 -0.414062 1.75 -0.644531 1.75 -0.9375 L 1.75 -24.203125 C 1.75 -24.472656 1.804688 -24.671875 1.921875 -24.796875 C 2.035156 -24.921875 2.210938 -24.984375 2.453125 -24.984375 L 11.890625 -24.984375 C 12.179688 -24.984375 12.382812 -24.941406 12.5 -24.859375 C 12.625 -24.785156 12.734375 -24.625 12.828125 -24.375 L 16.328125 -13.671875 C 16.398438 -13.492188 16.476562 -13.40625 16.5625 -13.40625 C 16.632812 -13.40625 16.703125 -13.492188 16.765625 -13.671875 L 19.90625 -24.015625 C 20.082031 -24.660156 20.382812 -24.984375 20.8125 -24.984375 L 30.546875 -24.984375 C 30.941406 -24.984375 31.140625 -24.75 31.140625 -24.28125 L 31.140625 -0.96875 C 31.140625 -0.613281 31.054688 -0.363281 30.890625 -0.21875 C 30.722656 -0.0703125 30.445312 0 30.0625 0 L 24.375 0 C 24.039062 0 23.8125 -0.0664062 23.6875 -0.203125 C 23.5625 -0.335938 23.5 -0.550781 23.5 -0.84375 L 23.5 -15.953125 C 23.5 -16.140625 23.457031 -16.234375 23.375 -16.234375 C 23.257812 -16.234375 23.164062 -16.128906 23.09375 -15.921875 L 18.25 -0.609375 C 18.09375 -0.203125 17.820312 0 17.4375 0 L 13.90625 0 C 13.5 0 13.226562 -0.203125 13.09375 -0.609375 L 8.25 -15.65625 C 8.1875 -15.882812 8.109375 -16 8.015625 -16 C 7.898438 -16 7.84375 -15.875 7.84375 -15.625 L 7.84375 -0.734375 C 7.84375 -0.441406 7.796875 -0.242188 7.703125 -0.140625 C 7.617188 -0.046875 7.421875 0 7.109375 0 Z M 2.625 0 "/></g></g></g><g fill="#f52e00" fill-opacity="1"><g transform="translate(38.064015, 37.517686)"><g><path d="M 24.6875 -24.984375 C 25.082031 -24.984375 25.28125 -24.847656 25.28125 -24.578125 C 25.28125 -24.515625 25.238281 -24.390625 25.15625 -24.203125 L 17.28125 -11.484375 C 17.113281 -11.253906 17.015625 -11.003906 16.984375 -10.734375 C 16.953125 -10.472656 16.9375 -9.984375 16.9375 -9.265625 L 16.9375 -0.96875 C 16.9375 -0.613281 16.84375 -0.363281 16.65625 -0.21875 C 16.476562 -0.0703125 16.203125 0 15.828125 0 L 10.171875 0 C 9.828125 0 9.59375 -0.0664062 9.46875 -0.203125 C 9.351562 -0.335938 9.296875 -0.550781 9.296875 -0.84375 L 9.296875 -9.703125 C 9.296875 -10.015625 9.257812 -10.265625 9.1875 -10.453125 C 9.125 -10.640625 9.003906 -10.878906 8.828125 -11.171875 L 0.9375 -24.046875 C 0.851562 -24.203125 0.8125 -24.347656 0.8125 -24.484375 C 0.8125 -24.816406 1.054688 -24.984375 1.546875 -24.984375 L 8.3125 -24.984375 C 8.625 -24.984375 8.851562 -24.9375 9 -24.84375 C 9.144531 -24.757812 9.300781 -24.570312 9.46875 -24.28125 L 13.609375 -16.796875 C 13.710938 -16.578125 13.800781 -16.46875 13.875 -16.46875 C 13.988281 -16.46875 14.085938 -16.566406 14.171875 -16.765625 L 18.25 -24.28125 C 18.382812 -24.570312 18.53125 -24.757812 18.6875 -24.84375 C 18.84375 -24.9375 19.078125 -24.984375 19.390625 -24.984375 Z M 24.6875 -24.984375 "/></g></g></g></svg>